<svg width="25" height="24" viewBox="0 0 25 24" fill="none" xmlns="http://www.w3.org/2000/svg">
<path d="M18.6138 11.8V8.91003C18.6138 5.61003 15.8248 2.91003 12.4161 2.91003C8.997 2.91003 6.21836 5.60003 6.21836 8.91003V11.8C6.21836 12.41 5.94979 13.34 5.62958 13.86L4.44169 15.77C3.70829 16.95 4.21444 18.26 5.55727 18.7C10.0093 20.14 14.8125 20.14 19.2645 18.7C20.5144 18.3 21.0619 16.87 20.3801 15.77" stroke="#45454A" stroke-width="1.5" stroke-miterlimit="10" stroke-linecap="round"/>
<path d="M14.327 3.19994C14.0068 3.10994 13.6763 3.03994 13.3354 2.99994C12.3438 2.87994 11.3934 2.94994 10.5051 3.19994C10.8047 2.45994 11.5484 1.93994 12.4161 1.93994C13.2837 1.93994 14.0275 2.45994 14.327 3.19994Z" stroke="#45454A" stroke-width="1.5" stroke-miterlimit="10" stroke-linecap="round" stroke-linejoin="round"/>
<path d="M15.5149 19.0601C15.5149 20.7101 14.1204 22.0601 12.4161 22.0601C11.569 22.0601 10.784 21.7201 10.2262 21.1801C9.66841 20.6401 9.31721 19.8801 9.31721 19.0601" stroke="#45454A" stroke-width="1.5" stroke-miterlimit="10"/>
</svg>
