<svg width="18" height="18" viewBox="0 0 18 18" fill="none" xmlns="http://www.w3.org/2000/svg">
<path d="M7.58791 13.49H2.1623" stroke="#2552FF" stroke-width="1.5" stroke-linecap="round" stroke-linejoin="round"/>
<path fill-rule="evenodd" clip-rule="evenodd" d="M15.8386 13.49C15.8386 14.6829 14.8715 15.65 13.6786 15.65C12.4856 15.65 11.5186 14.6829 11.5186 13.49C11.5186 12.2961 12.4856 11.33 13.6786 11.33C14.8715 11.33 15.8386 12.2961 15.8386 13.49Z" stroke="#2552FF" stroke-width="1.5" stroke-linecap="round" stroke-linejoin="round"/>
<path d="M10.4123 4.69666H15.8388" stroke="#2552FF" stroke-width="1.5" stroke-linecap="round" stroke-linejoin="round"/>
<path fill-rule="evenodd" clip-rule="evenodd" d="M2.1623 4.69662C2.1623 5.89045 3.12936 6.85662 4.3223 6.85662C5.51525 6.85662 6.4823 5.89045 6.4823 4.69662C6.4823 3.50368 5.51525 2.53662 4.3223 2.53662C3.12936 2.53662 2.1623 3.50368 2.1623 4.69662Z" stroke="#2552FF" stroke-width="1.5" stroke-linecap="round" stroke-linejoin="round"/>
</svg>
