<svg width="21" height="22" viewBox="0 0 21 22" fill="none" xmlns="http://www.w3.org/2000/svg">
<path d="M19.7552 5.884L19.2612 5.028C18.8882 4.38 18.7012 4.056 18.3832 3.927C18.0662 3.797 17.7072 3.9 16.9882 4.103L15.7682 4.447C15.3092 4.553 14.8282 4.493 14.4102 4.277L14.0732 4.083C13.7142 3.85292 13.4381 3.5141 13.2852 3.116L12.9512 2.118C12.7312 1.458 12.6212 1.128 12.3602 0.94C12.0992 0.75 11.7512 0.75 11.0572 0.75H9.9422C9.2482 0.75 8.9012 0.75 8.6392 0.94C8.3782 1.128 8.2692 1.458 8.0492 2.118L7.7152 3.116C7.56208 3.51424 7.28561 3.85308 6.9262 4.083L6.5892 4.278C6.1712 4.493 5.6892 4.553 5.2312 4.448L4.0112 4.103C3.2922 3.9 2.9332 3.798 2.6162 3.927C2.2982 4.056 2.1112 4.38 1.7382 5.027L1.2452 5.884C0.895201 6.492 0.720201 6.795 0.754201 7.118C0.788201 7.442 1.0222 7.702 1.4902 8.223L2.5212 9.376C2.7732 9.695 2.9522 10.251 2.9522 10.751C2.9522 11.251 2.7732 11.807 2.5222 12.126L1.4902 13.278C1.0222 13.799 0.788201 14.06 0.754201 14.383C0.720201 14.706 0.894201 15.01 1.2442 15.617L1.7382 16.474C2.1112 17.121 2.2982 17.445 2.6162 17.574C2.9342 17.703 3.2922 17.602 4.0112 17.398L5.2312 17.054C5.69009 16.949 6.17133 17.0092 6.5902 17.224L6.9262 17.418C7.2862 17.648 7.5622 17.988 7.7142 18.386L8.0482 19.383C8.2682 20.043 8.3782 20.373 8.6392 20.563C8.9012 20.751 9.2482 20.751 9.9422 20.751H11.0572C11.7512 20.751 12.0992 20.751 12.3602 20.562C12.6212 20.373 12.7312 20.043 12.9502 19.383L13.2852 18.386C13.4372 17.987 13.7132 17.648 14.0732 17.418L14.4092 17.224C14.8292 17.009 15.3092 16.948 15.7692 17.054L16.9892 17.398C17.7072 17.602 18.0662 17.704 18.3832 17.575C18.7012 17.445 18.8882 17.121 19.2612 16.474L19.7542 15.617C20.1042 15.01 20.2792 14.707 20.2452 14.383C20.2112 14.059 19.9772 13.799 19.5092 13.278L18.4782 12.126C18.2262 11.806 18.0472 11.251 18.0472 10.751C18.0472 10.251 18.2262 9.695 18.4772 9.376L19.5092 8.223C19.9772 7.703 20.2112 7.442 20.2452 7.118C20.2792 6.794 20.1052 6.492 19.7552 5.884Z" stroke="black" stroke-width="1.5" stroke-linecap="round"/>
<path d="M13.9572 10.743C13.9572 11.6712 13.5885 12.5615 12.9321 13.2179C12.2757 13.8742 11.3855 14.243 10.4572 14.243C9.52896 14.243 8.63872 13.8742 7.98234 13.2179C7.32596 12.5615 6.95721 11.6712 6.95721 10.743C6.95721 9.81472 7.32596 8.92448 7.98234 8.26811C8.63872 7.61173 9.52896 7.24298 10.4572 7.24298C11.3855 7.24298 12.2757 7.61173 12.9321 8.26811C13.5885 8.92448 13.9572 9.81472 13.9572 10.743Z" stroke="black" stroke-width="1.5"/>
</svg>
